<svg width="67" height="39" viewBox="0 0 67 39" fill="none" xmlns="http://www.w3.org/2000/svg">
<path fill-rule="evenodd" clip-rule="evenodd" d="M48.571 11.7692C49.8162 11.3974 51.141 11.1978 52.5068 11.1978C60.0741 11.1978 66.2206 17.3212 66.2206 24.8661C66.2206 32.4109 60.0741 38.5343 52.5068 38.5343C44.9368 38.5343 38.793 32.4109 38.793 24.8661C38.793 19.6557 41.7223 15.1234 46.0312 12.8162L44.8545 9.9759L32.5286 26.2329H27.7534C27.065 33.1354 21.212 38.5343 14.1082 38.5343C6.53819 38.5343 0.394409 32.4109 0.394409 24.8661C0.394409 17.3212 6.53819 11.1978 14.1082 11.1978C15.8499 11.1978 17.5202 11.5231 19.0534 12.1163L22.2926 5.74421L21.0254 2.99689H18.2223C17.4626 2.99689 16.851 2.38456 16.851 1.63007C16.851 0.976727 17.3694 0.263245 18.2223 0.263245H25.0546C25.7101 0.263245 26.4259 0.779904 26.4259 1.63007C26.4259 2.48023 25.7128 2.99689 25.0546 2.99689H24.0452L25.3343 5.73054H43.1184L41.9637 2.99689H37.4217C36.6619 2.99689 36.0503 2.38456 36.0503 1.63007C36.0503 0.779904 36.7607 0.263245 37.4217 0.263245H43.8123L48.571 11.7692ZM17.8054 14.5684C16.6507 14.1556 15.4055 13.9315 14.1082 13.9315C8.0522 13.9315 3.13717 18.8302 3.13717 24.8661C3.13717 30.902 8.0522 35.8007 14.1082 35.8007C19.698 35.8007 24.3168 31.6237 24.9942 26.2329H16.4834C16.0062 27.0503 15.1203 27.5997 14.1082 27.5997C12.5942 27.5997 11.3654 26.375 11.3654 24.8661C11.3654 23.409 12.5147 22.2144 13.9574 22.1379L17.8054 14.5684V14.5684ZM47.0844 15.3584C43.7712 17.2419 41.5358 20.7957 41.5358 24.8661C41.5358 30.902 46.4508 35.8007 52.5068 35.8007C58.5629 35.8007 63.4779 30.902 63.4779 24.8661C63.4779 18.8302 58.5629 13.9315 52.5068 13.9315C51.5085 13.9315 50.543 14.0654 49.6242 14.3142L52.8661 22.157C54.2128 22.332 55.2496 23.4801 55.2496 24.8661C55.2496 26.375 54.0181 27.5997 52.5068 27.5997C50.9928 27.5997 49.7641 26.375 49.7641 24.8661C49.7641 24.2401 49.9753 23.6633 50.3318 23.2013L47.0844 15.3584ZM20.252 15.8095L16.4039 23.3708L16.4834 23.4993H24.9942C24.591 20.3036 22.8055 17.5317 20.252 15.8095V15.8095ZM21.4972 13.3547C24.9366 15.5525 27.3283 19.2375 27.7534 23.4993H30.488L23.7572 8.91251L21.4972 13.3547ZM42.5698 8.46419H26.5549L32.6218 21.5775L42.5698 8.46419Z" fill="#29B672"/>
</svg>
