<svg width="36" height="36" viewBox="0 0 36 36" fill="none" xmlns="http://www.w3.org/2000/svg">
<g clip-path="url(#clip0)">
<path d="M25.2674 4.70201V1.72938C25.2674 0.908928 25.9318 0.243057 26.7537 0.243057C27.5757 0.243057 28.24 0.908928 28.24 1.72938V4.70201C28.24 5.52246 27.5757 6.18833 26.7537 6.18833C25.9318 6.18833 25.2674 5.52246 25.2674 4.70201ZM7.43159 6.18833C8.25352 6.18833 8.91791 5.52246 8.91791 4.70201V1.72938C8.91791 0.908928 8.25352 0.243057 7.43159 0.243057C6.60966 0.243057 5.94527 0.908928 5.94527 1.72938V4.70201C5.94527 5.52246 6.60966 6.18833 7.43159 6.18833ZM26.7537 25.5105V21.0515H25.2674V26.9968H29.7264V25.5105H26.7537ZM19.3221 26.2536C19.3221 29.9412 22.323 32.942 26.0106 32.942C29.6981 32.942 32.699 29.9412 32.699 26.2536C32.699 22.5661 29.6981 19.5652 26.0106 19.5652C22.323 19.5652 19.3221 22.5661 19.3221 26.2536ZM35.6716 26.2536C35.6716 31.5895 31.3464 35.9147 26.0106 35.9147C20.6747 35.9147 16.3495 31.5895 16.3495 26.2536C16.3495 20.9177 20.6747 16.5926 26.0106 16.5926C31.3464 16.5926 35.6716 20.9177 35.6716 26.2536ZM14.5109 31.4557H2.97264V12.1336H31.2127V14.754C32.2932 15.2445 33.292 15.8791 34.1853 16.6386V3.21569H29.7264V4.70201C29.7264 6.658 27.8268 8.17851 25.7757 7.5171C24.5406 7.11876 23.7811 5.8658 23.7811 4.56824V3.21569H10.4042V4.70201C10.4042 6.658 8.50471 8.17851 6.45359 7.5171C5.21846 7.11876 4.45895 5.8658 4.45895 4.56824V3.21569H0V34.4284H16.3956C15.6361 33.5351 15.0014 32.5363 14.5109 31.4557V31.4557Z" fill="#39645C"/>
</g>
<defs>
<clipPath id="clip0">
<rect width="35.6716" height="35.6716" fill="white" transform="translate(0 0.243057)"/>
</clipPath>
</defs>
</svg>
