<svg width="111" height="111" viewBox="0 0 111 111" fill="none" xmlns="http://www.w3.org/2000/svg">
<g clip-path="url(#clip0)">
<path d="M11.2733 55.3686H0.242188V46.1607H11.2733V55.3686ZM46.2818 25.6362V9.32898H37.0739V25.6362H46.2818ZM24.215 29.6693L14.2889 19.7431L7.77887 26.2531L17.705 36.1793L24.215 29.6693V29.6693ZM67.7731 18.6382L58.0357 28.371L64.5457 34.881L74.2831 25.1482L67.7731 18.6382V18.6382ZM13.9067 68.8536L3.78724 77.6886L9.7862 84.6728L19.9057 75.8378L13.9067 68.8536V68.8536ZM110.737 81.7124C110.737 92.587 101.76 101.408 90.6916 101.408H43.3076C32.2397 101.408 23.262 92.587 23.262 81.7124C23.262 78.1674 24.2334 74.8525 25.9047 71.9843C21.4664 67.8085 18.658 61.9476 18.658 55.3686C18.658 42.6524 28.9617 32.3488 41.6778 32.3488C47.7965 32.3488 53.2936 34.7797 57.3957 38.6838C60.3837 37.5789 63.6111 36.9527 66.9996 36.9527C81.5988 36.9527 93.4862 48.2002 94.2597 62.3482C103.624 64.001 110.737 72.0395 110.737 81.7124ZM27.8659 55.3686C27.8659 59.328 29.5694 62.8638 32.2627 65.3684C34.4956 63.9135 37.0002 62.8316 39.7396 62.3482C40.1447 54.9358 43.6207 48.3429 48.9199 43.7206C46.802 42.3946 44.3573 41.5567 41.6778 41.5567C34.0629 41.5567 27.8659 47.7536 27.8659 55.3686V55.3686ZM101.529 81.7124C101.529 72.1546 92.4181 69.6593 85.4661 70.1473C86.4698 63.5222 84.3611 46.1607 66.9996 46.1607C49.1593 46.1607 48.2983 63.9043 48.5331 70.1427C42.1566 69.756 32.4699 71.9613 32.4699 81.7124C32.4699 87.495 37.3317 92.2003 43.3076 92.2003H90.687C96.6675 92.2003 101.529 87.495 101.529 81.7124V81.7124Z" fill="#39645C"/>
</g>
<defs>
<clipPath id="clip0">
<rect width="110.495" height="110.495" fill="white" transform="translate(0.242188 0.121033)"/>
</clipPath>
</defs>
</svg>
