<svg width="391" height="339" viewBox="0 0 391 339" fill="none" xmlns="http://www.w3.org/2000/svg">
<path d="M238.234 260.69L235.659 261.549L231.796 256.395C231.796 255.966 231.796 255.107 231.796 254.677C230.508 239.646 226.215 225.044 220.635 213.448L236.088 183.385C242.098 182.526 245.961 181.238 247.249 180.808C253.258 179.09 257.98 174.795 260.555 169.212C263.56 163.629 263.989 157.617 261.843 151.604C260.555 148.168 258.838 145.162 256.263 142.585L259.697 137.002C261.414 133.996 260.555 129.701 257.551 127.983C254.546 126.265 250.253 127.124 248.536 130.13L245.532 136.572C243.815 136.143 242.098 136.143 240.381 136.143C238.234 136.143 235.659 136.572 233.513 137.002C233.083 137.002 228.362 138.29 222.781 138.29C219.347 138.29 216.343 137.861 213.767 137.002C211.621 136.143 209.904 134.425 209.045 133.137C208.616 132.278 207.758 131.419 207.328 130.56C213.338 128.842 218.918 125.406 224.069 121.111C231.796 114.24 236.517 104.791 237.805 94.9135L240.81 94.484C244.244 94.0546 247.249 91.0482 246.819 87.183C246.39 83.7472 243.385 80.7409 239.522 81.1704H237.376C236.088 74.2988 233.083 67.8567 228.791 62.2736L251.541 51.5367C254.975 49.8188 256.263 45.9536 254.546 42.9473C252.829 39.5115 248.966 38.2231 245.961 39.941L222.352 50.6778C218.06 44.6652 211.192 39.082 200.031 39.082C193.163 39.082 185.007 41.2294 174.705 45.9536C151.096 56.6904 149.809 77.7346 152.384 88.0419C151.955 97.0609 154.53 105.221 159.252 112.092L146.804 103.932C143.37 96.6314 136.502 91.4777 127.917 90.6188L121.478 89.7598C120.62 89.7598 119.332 89.7598 118.473 89.7598C106.025 89.7598 95.723 98.7787 94.006 111.233L85.421 179.949C84.9917 181.667 85.8502 183.385 86.7087 184.673C87.5672 185.962 89.2842 186.821 91.0012 187.25L128.775 191.974L127.058 208.724C127.058 208.724 127.058 208.724 127.058 209.153C126.2 217.743 124.912 224.185 122.766 229.768L112.035 255.107L105.167 269.279C102.162 275.722 104.737 283.882 111.176 286.888C115.469 289.035 120.62 288.606 124.483 285.599C126.629 290.324 131.351 293.759 136.502 293.759H150.238C157.535 293.759 163.545 287.747 163.545 280.446C163.545 273.145 157.535 267.132 150.238 267.132H148.95L164.403 230.197C170.413 230.627 175.993 231.486 178.998 231.486C181.144 232.774 185.007 236.64 187.583 244.8L169.983 282.593C168.266 286.029 169.554 289.894 172.988 291.612C173.847 292.042 175.134 292.471 175.993 292.471C178.568 292.471 180.715 291.183 182.002 289.035L193.592 267.132V267.562L196.168 282.164C197.455 288.606 203.036 293.33 209.045 293.33C209.904 293.33 210.333 293.33 211.192 293.33C215.484 292.471 219.347 289.894 221.064 286.029C224.498 289.894 230.079 291.612 235.23 290.324L246.39 286.888C253.258 284.741 257.121 277.439 254.975 270.568C252.4 262.837 245.102 258.543 238.234 260.69ZM237.376 149.457C238.234 149.027 239.522 149.027 240.381 149.027C244.673 149.027 248.536 151.604 249.824 155.899C251.541 161.052 248.536 166.635 243.385 168.353C242.956 168.353 241.239 169.212 237.805 169.642L235.23 149.886C236.947 149.886 237.376 149.457 237.376 149.457ZM215.913 68.2862C222.352 74.2988 225.786 82.8883 224.928 92.3367C223.64 107.798 210.762 118.964 195.738 118.964C194.88 118.964 194.021 118.964 192.734 118.964C191.875 118.964 191.017 118.964 190.158 118.535C188.441 118.105 186.724 117.676 185.007 117.246C174.276 113.381 166.549 103.073 165.691 91.4777L215.913 68.2862ZM148.95 121.541L152.813 123.688C151.096 124.547 149.809 125.836 148.521 127.124L148.95 121.541ZM145.945 158.046C147.233 142.585 161.398 129.701 177.281 129.701C178.998 129.701 180.285 129.701 181.573 130.13C183.29 130.56 185.007 131.419 186.724 131.419C191.446 133.137 195.309 136.572 198.314 140.438C200.889 144.303 204.753 147.739 209.475 149.457C213.767 151.174 218.489 151.604 222.781 151.604L225.357 171.36C224.498 171.36 224.069 171.36 223.211 171.36C218.489 171.36 213.767 170.93 208.616 169.642C196.597 166.206 192.734 161.482 192.734 161.052C192.734 161.052 187.583 162.77 186.295 163.629C170.842 175.654 150.667 170.93 145.087 169.212L145.945 158.046ZM143.37 183.385C147.233 184.244 153.672 185.532 160.54 185.532C169.983 185.532 180.715 183.814 190.587 176.943C193.163 178.231 196.168 179.949 200.031 181.238L198.743 193.692L142.941 188.109L143.37 183.385ZM204.753 252.101C200.46 225.903 185.007 219.461 185.007 219.461C184.578 219.031 162.686 216.884 162.686 216.884H162.257C159.681 216.884 157.106 218.602 156.247 220.749L142.511 252.53C142.082 252.53 141.653 252.101 141.653 252.101L130.063 247.806L135.643 234.492C139.077 226.762 140.365 218.172 140.794 210.012L141.653 201.423L200.46 207.006C206.899 213.877 214.626 230.197 217.63 249.953L204.753 252.101ZM212.479 200.564C212.479 200.564 212.05 200.134 212.05 199.705L213.767 183.814C216.343 184.244 218.489 184.244 221.064 184.244L212.479 200.564Z" fill="#77A28D" fill-opacity="0.4"/>
<path d="M206.47 94.0546C210.263 94.0546 213.338 90.9781 213.338 87.183C213.338 83.3879 210.263 80.3114 206.47 80.3114C202.677 80.3114 199.602 83.3879 199.602 87.183C199.602 90.9781 202.677 94.0546 206.47 94.0546Z" fill="#77A28D" fill-opacity="0.4"/>
<path d="M387.184 179.52C386.755 179.52 365.722 171.36 355.42 154.181V138.29C367.01 149.886 380.316 155.469 381.175 155.899C382.033 156.328 382.892 156.328 383.75 156.328C386.326 156.328 388.901 154.61 389.76 152.033C391.048 148.598 389.331 144.732 386.326 143.444C386.326 143.444 365.722 134.854 355.42 116.387V105.65C364.005 114.669 373.019 118.964 373.448 118.964C374.307 119.393 375.165 119.393 376.453 119.393C379.029 119.393 381.175 118.105 382.463 115.528C384.18 112.092 382.463 108.227 379.458 106.939C379.458 106.939 362.717 98.7788 354.991 81.5998C354.991 81.5998 354.991 81.1704 354.561 81.1704L354.132 80.7409L353.703 80.3114L353.274 79.8819L352.844 79.4525L352.415 79.023C352.415 79.023 351.986 78.5935 351.557 78.5935C351.557 78.5935 351.127 78.5935 351.127 78.1641C350.698 78.1641 350.698 78.164 350.269 77.7346H349.84C349.41 77.7346 349.41 77.7346 348.981 77.7346H348.552H348.123C347.693 77.7346 347.693 77.7346 347.264 77.7346H346.835C346.406 77.7346 346.406 77.7346 345.976 78.1641H345.547C345.118 78.1641 345.118 78.5935 344.689 78.5935L344.259 79.023L343.83 79.4525L343.401 79.8819L342.972 80.3114L342.542 80.7409C342.542 80.7409 342.542 81.1704 342.113 81.1704C334.816 98.3493 318.075 106.509 317.646 106.509C314.641 107.798 312.924 111.663 314.212 115.099C313.353 114.669 302.622 109.945 297.042 100.497C300.905 103.503 303.91 105.221 304.339 105.221C305.197 105.65 306.056 105.65 307.344 105.65C309.919 105.65 312.066 104.362 313.353 101.785C315.07 98.3493 313.353 94.484 310.348 93.1956C310.348 93.1956 300.905 88.4714 297.042 79.023C297.042 79.023 297.042 78.5935 296.612 78.5935C296.612 78.1641 296.183 78.1641 296.183 78.1641L295.754 77.7346L295.325 77.3051L294.895 76.8756L294.466 76.4462L294.037 76.0167C294.037 76.0167 293.608 76.0167 293.608 75.5872C293.178 75.5872 293.178 75.5872 292.749 75.1577H292.32C291.891 75.1577 291.891 75.1577 291.461 75.1577H291.032H290.603C290.174 75.1577 290.174 75.1577 289.744 75.1577H289.315C288.886 75.1577 288.886 75.1577 288.457 75.5872H288.027C287.598 75.5872 287.598 76.0167 287.169 76.0167L286.74 76.4462L286.31 76.8756L285.881 77.3051L285.452 77.7346L285.023 78.1641C285.023 78.1641 285.023 78.5935 284.593 78.5935C280.301 88.0419 271.287 92.7661 270.857 92.7661C267.423 94.484 266.136 98.3493 267.853 101.356C269.14 103.932 271.287 105.221 273.862 105.221C274.721 105.221 275.579 105.221 276.867 104.791C277.296 104.791 280.301 103.073 284.164 100.067C278.584 109.945 267.423 114.669 266.994 114.669C263.56 115.958 261.843 119.823 263.56 123.259C264.419 125.836 266.994 127.553 269.57 127.553C270.428 127.553 271.287 127.553 272.145 127.124C272.574 127.124 278.155 124.547 284.164 119.823V123.688C278.155 132.707 266.565 137.431 266.565 137.431C263.131 138.72 261.414 142.585 262.702 146.021C263.56 148.598 266.136 150.315 268.711 150.315C269.57 150.315 270.428 150.315 270.857 149.886C271.287 149.886 277.296 147.309 283.735 142.585V157.187C283.735 160.623 286.74 163.629 290.174 163.629C293.608 163.629 296.612 160.623 296.612 157.187V142.585C300.046 145.162 303.48 147.309 306.056 148.168C307.344 149.457 307.344 150.745 307.773 152.033C308.631 154.61 311.207 156.328 313.783 156.328C314.641 156.328 315.5 156.328 316.358 155.899C317.217 155.469 330.523 149.886 342.113 138.29V154.181C331.811 171.36 310.778 179.52 310.348 179.52C306.914 180.808 305.197 184.673 306.485 188.109C307.344 190.686 309.919 192.404 312.495 192.404C313.353 192.404 314.212 192.404 314.641 191.974C315.499 191.545 329.665 186.391 341.684 174.795V207.865C341.684 211.301 344.689 214.307 348.123 214.307C351.557 214.307 354.561 211.301 354.561 207.865V174.795C367.01 186.391 380.746 191.545 381.604 191.974C382.463 192.404 383.321 192.404 383.75 192.404C386.326 192.404 388.901 190.686 389.76 188.109C392.335 184.673 390.618 180.808 387.184 179.52ZM342.113 116.817C336.104 127.983 325.802 135.713 318.504 140.008C317.646 139.149 316.787 138.29 315.5 137.861C315.5 137.861 303.91 133.137 297.9 124.118V121.111C303.91 125.836 309.49 128.412 309.919 128.412C310.778 128.842 311.636 128.842 312.495 128.842C315.07 128.842 317.646 127.124 318.504 124.547C319.363 122.829 318.934 121.111 318.504 119.393C319.363 119.823 320.221 119.823 321.08 119.823C321.938 119.823 322.797 119.823 324.085 119.393C324.514 118.964 333.528 114.669 342.113 106.08V116.817Z" fill="#77A28D" fill-opacity="0.4"/>
<path d="M4.29251 191.115C0.858499 192.404 -0.858505 196.269 0.429248 199.705C1.28775 202.282 3.86326 204 6.43876 204C7.29727 204 8.15577 204 8.58502 203.57C9.44352 203.141 23.1796 197.987 35.6278 186.391V219.461C35.6278 222.896 38.6326 225.903 42.0666 225.903C45.5006 225.903 48.5054 222.896 48.5054 219.461V186.391C60.9536 197.987 74.6897 203.141 75.5482 203.57C76.4067 204 77.2652 204 77.6944 204C80.27 204 82.8455 202.282 83.704 199.705C84.9917 196.269 83.2747 192.404 79.8407 191.115C79.4114 191.115 58.3781 182.955 48.0761 165.777V150.316C59.6659 161.911 72.9727 167.494 73.8312 167.924C74.6897 168.353 75.5482 168.353 76.4067 168.353C78.9822 168.353 81.5577 166.635 82.4162 164.059C83.704 160.623 81.9869 156.758 78.9822 155.469C78.9822 155.469 58.3781 146.88 48.5054 128.842V118.105C57.0904 127.124 66.1047 130.989 66.5339 131.419C67.3924 131.848 68.2509 131.848 69.5387 131.848C72.1142 131.848 74.2604 130.56 75.5482 127.983C77.2652 124.547 75.5482 120.682 72.5434 119.393C72.5434 119.393 55.8026 111.233 48.5054 94.0546C48.5054 94.0546 48.5054 93.6251 48.0761 93.6251C48.0761 93.1956 47.6469 93.1956 47.6469 93.1956L47.2176 92.7661L46.7884 92.3367L46.3591 91.9072L45.9299 91.4777C45.9299 91.4777 45.5006 91.0483 45.0714 91.0483H44.6421C44.2129 91.0483 44.2129 91.0482 43.7836 90.6188H43.3544C42.9251 90.6188 42.9251 90.6188 42.4958 90.6188H42.0666H41.6373C41.2081 90.6188 41.2081 90.6188 40.7788 90.6188H40.3496C39.9203 90.6188 39.9203 90.6188 39.4911 91.0483H39.0618C38.6326 91.0483 38.6326 91.4777 38.2033 91.4777L37.7741 91.9072L37.3448 92.3367L36.9156 92.7661L36.4863 93.1956L36.0571 93.6251C36.0571 93.6251 36.0571 94.0546 35.6278 94.0546C29.1891 111.233 12.4483 119.393 12.4483 119.393C9.01427 121.111 7.72651 124.977 9.44352 127.983C10.302 130.56 12.8775 132.278 15.0238 132.278C15.8823 132.278 16.7408 132.278 18.0285 131.848C18.4578 131.419 27.4721 127.553 36.0571 118.535V129.271C26.1843 147.309 5.58026 155.899 5.58026 155.899C2.14625 157.187 0.429248 161.052 2.14625 164.488C3.00475 167.065 5.58026 168.783 8.15577 168.783C9.01427 168.783 9.87277 168.783 10.7313 168.353C11.5898 167.924 24.4673 162.77 36.4863 150.745V166.206C25.7551 182.955 4.72176 191.115 4.29251 191.115Z" fill="#77A28D" fill-opacity="0.4"/>
<path d="M228.791 38.2231L250.253 15.8905L303.48 70.863C305.627 73.0104 308.631 73.4398 311.207 72.1514L346.406 53.2546L376.882 72.1514C378.17 73.0104 379.029 73.0104 380.316 73.0104C382.463 73.0104 384.609 71.722 385.897 70.0041C387.614 66.9978 386.755 62.703 383.75 60.9851L350.269 39.941C348.123 38.6526 345.547 38.6526 343.83 39.941L309.919 58.4083L254.975 2.14736C253.687 0.858946 251.97 0 250.253 0C248.536 0 246.819 0.858946 245.532 2.14736L219.347 29.2042C216.772 31.781 216.772 36.0757 219.347 38.6526C221.923 41.2294 226.215 40.7999 228.791 38.2231Z" fill="#77A28D" fill-opacity="0.4"/>
<path d="M7.72651 86.7535C8.58501 86.7535 9.01426 86.7535 9.87276 86.324L52.3686 72.5809C53.6564 72.1514 54.9441 71.2925 55.8026 70.0041L71.2557 46.3831L113.322 81.5998C115.469 83.3177 118.473 83.7472 121.049 82.0293L136.502 73.0104H140.794C144.228 73.0104 147.233 70.0041 147.233 66.5683C147.233 63.1325 144.228 60.1262 140.794 60.1262H134.356C133.068 60.1262 131.78 60.5557 130.922 60.9852L118.044 68.7157L73.8312 31.781C72.5434 30.4926 70.3972 30.0631 68.6802 30.4926C66.9632 30.9221 65.2461 31.781 63.9584 33.4989L45.5006 61.4146L5.58026 74.2988C2.14625 75.5872 0.429243 79.023 1.28775 82.4588C2.5755 85.0356 5.151 86.7535 7.72651 86.7535Z" fill="#77A28D" fill-opacity="0.4"/>
<path d="M300.476 309.65C297.9 304.496 294.037 300.202 282.876 300.202C270.428 300.202 264.419 313.515 263.131 321.246C262.702 322.964 263.131 325.111 264.419 326.829C265.706 328.547 267.423 329.406 269.57 329.406H308.202C309.919 329.406 311.636 328.547 312.924 327.258C314.212 325.97 314.641 324.252 314.641 322.534C314.641 317.381 310.348 310.079 300.476 309.65Z" fill="#77A28D" fill-opacity="0.4"/>
<path d="M102.162 322.964C101.303 321.246 99.5863 319.957 97.8693 319.528L87.5672 316.951C84.9917 316.522 82.8455 316.951 81.1285 319.098L73.8312 327.258C72.1142 329.406 71.6849 331.983 72.9727 334.559C73.8312 337.136 76.4067 338.425 78.9822 338.425H99.5863C103.02 338.425 106.025 335.418 106.025 331.983C106.025 330.694 105.596 329.835 105.167 328.547L102.162 322.964Z" fill="#77A28D" fill-opacity="0.4"/>
<path d="M376.024 276.151C375.165 274.433 373.448 273.145 371.731 272.715L361 269.709C358.425 269.279 356.278 269.709 354.561 271.856L347.264 280.016C345.547 282.164 345.118 284.741 346.406 287.317C347.264 289.894 349.84 291.183 352.415 291.183H373.019C376.453 291.183 379.458 288.176 379.458 284.741C379.458 283.452 379.029 282.593 378.599 281.305L376.024 276.151Z" fill="#77A28D" fill-opacity="0.4"/>
<path d="M107.742 244.8C111.176 244.37 113.752 240.934 113.322 237.499C112.893 234.063 109.459 231.486 106.025 231.915C105.596 231.915 75.1189 235.781 56.6611 235.781H6.43877C3.00476 235.781 0 238.787 0 242.223C0 245.658 3.00476 248.665 6.43877 248.665H56.6611C76.4067 248.665 106.454 244.8 107.742 244.8Z" fill="#77A28D" fill-opacity="0.4"/>
<path d="M379.887 226.762C351.557 231.486 328.377 227.191 326.66 226.762C297.9 219.461 243.385 219.461 240.381 219.461C236.947 219.461 233.942 222.467 233.942 225.903C233.942 229.339 236.947 232.345 240.381 232.345C241.239 232.345 296.183 232.345 323.655 239.216C324.514 239.216 335.674 241.793 352.415 241.793C361 241.793 370.873 241.364 381.604 239.646C385.038 239.216 387.614 235.781 387.184 231.915C386.755 228.48 383.321 225.903 379.887 226.762Z" fill="#77A28D" fill-opacity="0.4"/>
</svg>
