<svg width="30" height="60" viewBox="0 0 43 60" fill="none" xmlns="http://www.w3.org/2000/svg">
<path d="M25.0774 14.1257C28.7146 12.6462 30.3791 8.45409 28.8996 4.81685C27.42 1.17962 23.228 -0.484884 19.5907 0.994671C15.9535 2.53587 14.289 6.6663 15.7685 10.3035C17.3097 13.9408 21.4402 15.6669 25.0774 14.1257Z" fill="#46A69E"/>
<path d="M37.0987 28.798C38.2084 28.3048 39.0098 27.2568 39.0098 25.9005C39.0098 24.236 37.6536 22.8797 35.9891 22.6948L29.0845 21.8317C29.0845 21.8317 25.6322 19.4891 22.4881 17.4547C17.9878 14.5572 13.919 16.2834 12.7477 19.9206C11.9463 22.3866 11.3298 27.1951 10.775 31.5721C10.4667 34.3463 11.823 37.0588 14.2889 38.4151L12.6244 44.1483L6.21303 53.2106C5.16501 54.6902 5.22666 56.7245 6.45962 57.9575C7.1994 58.6973 8.12412 59.0672 9.04884 59.0672C10.1585 59.0672 11.3298 58.5123 12.008 57.526L18.8509 47.8472C19.0975 47.539 19.2824 47.1691 19.4057 46.7376L20.6387 42.4838L23.5361 44.5799L26.0637 56.1697C26.4336 57.8959 27.9132 59.0055 29.6393 59.0055C30.5024 59.0055 31.3655 58.6973 32.1669 58.0192C33.1533 57.1561 33.4615 55.7382 33.2149 54.4436L30.3174 41.6824C30.1325 40.8193 29.6393 40.0179 28.8995 39.5247L22.858 35.1477L24.3992 26.3937L26.2487 27.565C26.6802 27.8116 27.1117 27.9965 27.6049 28.0582L34.0163 28.8596L39.688 57.5876C39.8112 58.3274 40.4894 58.8206 41.1675 58.8206C41.2908 58.8206 41.3525 58.8206 41.4757 58.8206C42.2772 58.6356 42.832 57.8959 42.6471 57.0328L37.0987 28.798Z" fill="#46A69E"/>
<path d="M8.55556 32.4352L10.7749 18.0712C10.8982 17.1465 10.0968 16.3451 9.17205 16.4684L3.50042 17.3931C2.63735 17.5164 2.02086 18.1945 1.89757 19.0576L0.664606 28.9213C0.54131 29.6611 0.911198 30.4008 1.58933 30.7707L6.33623 33.5449C7.26095 34.0381 8.37062 33.4832 8.55556 32.4352Z" fill="#46A69E"/>
</svg>
