<svg width="305" height="240" viewBox="0 0 305 240" fill="none" xmlns="http://www.w3.org/2000/svg">
<path d="M17.8158 176.617H0.312558V166.302H47.9777V176.617H30.4744V221H17.8158V176.617ZM64.6562 184.509C66.1148 182.477 68.0683 180.94 70.5167 179.899C73.0171 178.857 75.8822 178.336 79.112 178.336V189.588C77.7576 189.484 76.846 189.432 76.3771 189.432C72.8869 189.432 70.152 190.421 68.1725 192.401C66.1929 194.328 65.2032 197.246 65.2032 201.153V221H53.0134V178.961H64.6562V184.509ZM127.158 200.137C127.158 200.293 127.08 201.387 126.924 203.419H95.1208C95.6939 206.023 97.0483 208.081 99.1841 209.592C101.32 211.102 103.977 211.858 107.154 211.858C109.342 211.858 111.27 211.545 112.937 210.92C114.656 210.243 116.245 209.201 117.703 207.794L124.189 214.827C120.23 219.359 114.447 221.625 106.842 221.625C102.101 221.625 97.9078 220.713 94.2613 218.89C90.6148 217.015 87.8018 214.436 85.8222 211.154C83.8427 207.873 82.8529 204.148 82.8529 199.98C82.8529 195.865 83.8167 192.167 85.7441 188.885C87.7236 185.551 90.4064 182.972 93.7925 181.149C97.2306 179.273 101.059 178.336 105.279 178.336C109.394 178.336 113.119 179.221 116.453 180.993C119.787 182.764 122.392 185.316 124.267 188.65C126.194 191.932 127.158 195.761 127.158 200.137ZM105.357 187.556C102.596 187.556 100.278 188.338 98.4027 189.9C96.5274 191.463 95.3813 193.599 94.9646 196.308H115.672C115.255 193.651 114.109 191.541 112.233 189.979C110.358 188.364 108.066 187.556 105.357 187.556ZM176.453 200.137C176.453 200.293 176.375 201.387 176.219 203.419H144.416C144.989 206.023 146.343 208.081 148.479 209.592C150.615 211.102 153.272 211.858 156.449 211.858C158.637 211.858 160.565 211.545 162.232 210.92C163.951 210.243 165.54 209.201 166.998 207.794L173.484 214.827C169.525 219.359 163.742 221.625 156.137 221.625C151.396 221.625 147.203 220.713 143.556 218.89C139.91 217.015 137.097 214.436 135.117 211.154C133.138 207.873 132.148 204.148 132.148 199.98C132.148 195.865 133.112 192.167 135.039 188.885C137.019 185.551 139.701 182.972 143.088 181.149C146.526 179.273 150.354 178.336 154.574 178.336C158.689 178.336 162.414 179.221 165.748 180.993C169.082 182.764 171.687 185.316 173.562 188.65C175.489 191.932 176.453 195.761 176.453 200.137ZM154.652 187.556C151.891 187.556 149.573 188.338 147.698 189.9C145.822 191.463 144.676 193.599 144.26 196.308H164.967C164.55 193.651 163.404 191.541 161.528 189.979C159.653 188.364 157.361 187.556 154.652 187.556ZM184.569 163.02H196.758V221H184.569V163.02ZM233.623 178.336C238.832 178.336 243.026 179.899 246.204 183.024C249.433 186.15 251.048 190.786 251.048 196.933V221H238.859V198.808C238.859 195.474 238.129 193 236.671 191.385C235.212 189.718 233.102 188.885 230.341 188.885C227.268 188.885 224.819 189.848 222.996 191.776C221.173 193.651 220.261 196.464 220.261 200.215V221H208.072V163.02H220.261V183.337C221.876 181.722 223.83 180.498 226.122 179.664C228.414 178.779 230.914 178.336 233.623 178.336ZM279.054 178.336C285.566 178.336 290.567 179.899 294.057 183.024C297.547 186.098 299.292 190.76 299.292 197.011V221H287.884V215.765C285.592 219.672 281.32 221.625 275.069 221.625C271.839 221.625 269.026 221.078 266.63 219.984C264.286 218.89 262.488 217.38 261.238 215.452C259.988 213.525 259.363 211.337 259.363 208.888C259.363 204.981 260.821 201.908 263.739 199.668C266.708 197.428 271.266 196.308 277.413 196.308H287.102C287.102 193.651 286.295 191.62 284.68 190.213C283.065 188.754 280.643 188.025 277.413 188.025C275.173 188.025 272.959 188.39 270.771 189.119C268.635 189.796 266.812 190.734 265.301 191.932L260.926 183.415C263.218 181.8 265.953 180.55 269.13 179.664C272.36 178.779 275.668 178.336 279.054 178.336ZM278.116 213.42C280.2 213.42 282.049 212.952 283.664 212.014C285.279 211.024 286.425 209.592 287.102 207.716V203.419H278.741C273.74 203.419 271.24 205.06 271.24 208.341C271.24 209.904 271.839 211.154 273.037 212.092C274.287 212.978 275.98 213.42 278.116 213.42Z" fill="#DEE8C6"/>
<path fill-rule="evenodd" clip-rule="evenodd" d="M144.508 114.792V145H159.507V114.792H212L182 78.5417H204.5L174.5 42.2917H189.5L152.008 0L114.5 42.2917H129.5L99.5 78.5417H122L92 114.792H144.508ZM126.313 67.6019H142.331V108H160.772V67.6019H176.791V53.3023H126.313V67.6019Z" fill="#DEE8C6"/>
</svg>
