<svg width="184" height="145" viewBox="0 0 184 145" fill="none" xmlns="http://www.w3.org/2000/svg">
<path d="M10.7479 106.819H0.188599V100.587H28.944V106.819H18.3846V133.634H10.7479V106.819ZM39.0057 111.587C39.8857 110.359 41.0642 109.431 42.5413 108.802C44.0497 108.172 45.7782 107.858 47.7266 107.858V114.656C46.9095 114.593 46.3596 114.561 46.0767 114.561C43.9712 114.561 42.3212 115.159 41.1271 116.355C39.9328 117.519 39.3357 119.282 39.3357 121.643V133.634H31.9819V108.235H39.0057V111.587ZM76.7117 121.029C76.7117 121.123 76.6647 121.784 76.5706 123.012H57.3844C57.7301 124.585 58.5472 125.829 59.8357 126.741C61.1242 127.654 62.7271 128.11 64.6438 128.11C65.9637 128.11 67.1269 127.921 68.1325 127.544C69.1696 127.135 70.1282 126.505 71.0078 125.655L74.9206 129.904C72.5322 132.642 69.0435 134.011 64.4555 134.011C61.5954 134.011 59.0657 133.46 56.8659 132.359C54.666 131.226 52.969 129.668 51.7747 127.685C50.5806 125.703 49.9834 123.452 49.9834 120.934C49.9834 118.448 50.5649 116.214 51.7276 114.231C52.9218 112.217 54.5403 110.659 56.5831 109.557C58.6572 108.424 60.9668 107.858 63.5126 107.858C65.9951 107.858 68.2423 108.392 70.2537 109.463C72.265 110.533 73.8365 112.075 74.9677 114.089C76.1302 116.072 76.7117 118.385 76.7117 121.029ZM63.5597 113.428C61.894 113.428 60.4956 113.9 59.3643 114.844C58.233 115.788 57.5415 117.079 57.2902 118.716H69.7825C69.5309 117.11 68.8396 115.836 67.7078 114.892C66.5767 113.916 65.194 113.428 63.5597 113.428ZM106.45 121.029C106.45 121.123 106.403 121.784 106.309 123.012H87.1231C87.4688 124.585 88.2857 125.829 89.5743 126.741C90.8629 127.654 92.4658 128.11 94.3824 128.11C95.7024 128.11 96.8655 127.921 97.8711 127.544C98.9082 127.135 99.8668 126.505 100.746 125.655L104.659 129.904C102.271 132.642 98.7821 134.011 94.1942 134.011C91.334 134.011 88.8045 133.46 86.6043 132.359C84.4048 131.226 82.7077 129.668 81.5132 127.685C80.3194 125.703 79.7221 123.452 79.7221 120.934C79.7221 118.448 80.3037 116.214 81.4662 114.231C82.6607 112.217 84.2787 110.659 86.322 109.557C88.396 108.424 90.7054 107.858 93.2512 107.858C95.7337 107.858 97.9809 108.392 99.9923 109.463C102.004 110.533 103.575 112.075 104.706 114.089C105.869 116.072 106.45 118.385 106.45 121.029ZM93.2983 113.428C91.6326 113.428 90.2342 113.9 89.1031 114.844C87.9713 115.788 87.28 117.079 87.029 118.716H99.5211C99.2695 117.11 98.5782 115.836 97.4464 114.892C96.3153 113.916 94.9326 113.428 93.2983 113.428ZM111.347 98.6042H118.7V133.634H111.347V98.6042ZM140.94 107.858C144.082 107.858 146.612 108.802 148.53 110.69C150.478 112.579 151.452 115.379 151.452 119.093V133.634H144.099V120.226C144.099 118.212 143.658 116.717 142.779 115.741C141.898 114.734 140.626 114.231 138.96 114.231C137.106 114.231 135.629 114.813 134.529 115.978C133.429 117.11 132.879 118.81 132.879 121.076V133.634H125.525V98.6042H132.879V110.879C133.853 109.903 135.032 109.164 136.415 108.66C137.797 108.125 139.306 107.858 140.94 107.858ZM168.347 107.858C172.276 107.858 175.293 108.802 177.398 110.69C179.504 112.547 180.557 115.364 180.557 119.14V133.634H173.674V130.471C172.292 132.831 169.714 134.011 165.943 134.011C163.995 134.011 162.298 133.681 160.852 133.02C159.438 132.359 158.353 131.447 157.599 130.282C156.845 129.118 156.468 127.796 156.468 126.316C156.468 123.956 157.348 122.099 159.108 120.746C160.899 119.392 163.649 118.716 167.357 118.716H173.203C173.203 117.11 172.716 115.883 171.741 115.033C170.767 114.152 169.306 113.711 167.357 113.711C166.006 113.711 164.67 113.932 163.35 114.372C162.062 114.781 160.962 115.348 160.05 116.072L157.411 110.926C158.794 109.95 160.444 109.195 162.36 108.66C164.309 108.125 166.305 107.858 168.347 107.858ZM167.781 129.054C169.039 129.054 170.154 128.771 171.128 128.205C172.103 127.607 172.794 126.741 173.203 125.608V123.012H168.159C165.142 123.012 163.633 124.003 163.633 125.986C163.633 126.93 163.995 127.685 164.717 128.252C165.472 128.787 166.493 129.054 167.781 129.054Z" fill="#043433"/>
<path fill-rule="evenodd" clip-rule="evenodd" d="M87.1785 69.3535V87.6042H96.2271V69.3535H127.895L109.797 47.4523H123.37L105.272 25.5512H114.321L91.7031 0L69.0754 25.5512H78.1245L60.0262 47.4523H73.5999L55.5016 69.3535H87.1785ZM76.2019 40.8428H85.8652V65.25H96.9903V40.8428H106.654V32.2035H76.2019V40.8428Z" fill="#043433"/>
</svg>
