<svg width="53" height="53" viewBox="0 0 53 53" fill="none" xmlns="http://www.w3.org/2000/svg">
<g clip-path="url(#clip0)">
<path d="M39.5706 39.748H13.4802L13.4759 38.3929C13.4759 35.6545 13.6934 34.0732 16.9299 33.3249C20.5928 32.4788 24.2035 31.7241 22.4656 28.5201C17.3193 19.0302 20.9996 13.6468 26.5243 13.6468C31.9425 13.6468 35.7163 18.8301 30.583 28.5223C28.8973 31.7067 32.3797 32.4636 36.1187 33.3271C39.3596 34.0754 39.5749 35.6588 39.5749 38.4016L39.5706 39.748ZM50.035 34.9323C47.2291 34.2842 44.619 33.7165 45.8827 31.3282C49.7304 24.059 46.9028 20.1721 42.8376 20.1721C40.0861 20.1721 37.9479 21.9492 37.9479 25.227C37.9479 33.7165 42.8811 29.077 42.8332 39.748H52.6233L52.6277 38.7409C52.6277 36.6833 52.4667 35.4935 50.035 34.9323ZM0.429643 39.748H10.2198C10.1741 29.077 15.105 33.7186 15.105 25.227C15.105 21.9492 12.9669 20.1721 10.2154 20.1721C6.15015 20.1721 3.32253 24.059 7.17245 31.3282C8.43618 33.7186 5.82606 34.2842 3.02019 34.9323C0.58625 35.4935 0.425293 36.6833 0.425293 38.7409L0.429643 39.748V39.748Z" fill="#2C5449"/>
</g>
<defs>
<clipPath id="clip0">
<rect width="52.2024" height="52.2024" fill="white" transform="translate(0.425781 0.596222)"/>
</clipPath>
</defs>
</svg>
