<svg width="55" height="55" viewBox="0 0 55 55" fill="none" xmlns="http://www.w3.org/2000/svg">
<g clip-path="url(#clip0)">
<path fill-rule="evenodd" clip-rule="evenodd" d="M43.3256 24.5081C34.6319 19.3454 20.2922 18.8712 11.9918 21.3907C10.6589 21.7953 9.24969 21.0423 8.84737 19.7095C8.4428 18.3767 9.1935 16.9674 10.5286 16.5629C20.0562 13.6702 35.8928 14.2299 45.9013 20.1703C47.0993 20.8828 47.4926 22.4291 46.7824 23.6271C46.0722 24.8251 44.5236 25.2206 43.3256 24.5081ZM43.0424 32.1567C42.431 33.1457 41.1387 33.4558 40.1497 32.849C32.9012 28.3942 21.8497 27.1019 13.2729 29.7046C12.1626 30.0417 10.9871 29.4147 10.6499 28.3043C10.3151 27.1918 10.9421 26.0208 12.0525 25.6814C21.8475 22.7101 34.025 24.1485 42.3501 29.2663C43.3391 29.8732 43.6492 31.17 43.0424 32.1567ZM39.7407 39.4996C39.2574 40.2953 38.2213 40.5448 37.4301 40.0593C31.0964 36.1889 23.1241 35.3146 13.7359 37.4588C12.8324 37.6656 11.9311 37.0992 11.7243 36.1957C11.5175 35.2899 12.0817 34.3886 12.9875 34.1818C23.2612 31.8331 32.0741 32.8445 39.1833 37.1891C39.9767 37.6723 40.2261 38.7085 39.7407 39.4996V39.4996ZM27.3721 0.598145C12.4772 0.598145 0.400879 12.6745 0.400879 27.5694C0.400879 42.4665 12.4772 54.5406 27.3721 54.5406C42.2692 54.5406 54.3433 42.4665 54.3433 27.5694C54.3433 12.6745 42.2692 0.598145 27.3721 0.598145Z" fill="url(#paint0_linear)"/>
</g>
<defs>
<linearGradient id="paint0_linear" x1="27.3721" y1="0.598145" x2="27.3721" y2="54.5406" gradientUnits="userSpaceOnUse">
<stop stop-color="#2C5449"/>
<stop offset="1" stop-color="#1EA765"/>
</linearGradient>
<clipPath id="clip0">
<rect width="53.9425" height="53.9425" fill="white" transform="translate(0.400879 0.598145)"/>
</clipPath>
</defs>
</svg>
