<svg width="45" height="55" viewBox="0 0 64 55" fill="none" xmlns="http://www.w3.org/2000/svg">
<path d="M63.2808 54.5951H43.4665C42.9239 54.5951 38.0646 54.4991 34.3389 51.4256L34.2496 51.3466L0.15979 20.6816L4.20506 16.1555L38.2432 46.776C40.3276 48.4654 43.4492 48.517 43.4801 48.5204H63.2807V54.5951H63.2808Z" fill="#46A69E"/>
<path d="M63.2811 44.3068H44.0128C44.0128 44.3068 41.6364 44.3068 39.3356 42.1228L7.17761 13.2073C7.17761 13.2073 14.7324 3.03749 16.8263 1.93857C19.061 0.769321 20.6201 0.832851 21.4744 1.04569C21.9817 1.16929 22.8574 2.06724 23.4919 3.39284C24.2843 5.05499 25.2879 7.56529 27.2531 9.52953C30.7841 13.0598 40.3933 11.3702 40.3933 11.3702C40.3933 11.3702 41.8785 10.9237 42.3198 13.2056L48.2264 28.5788C48.2264 28.5788 49.2618 31.4909 51.4578 32.2085C54.5726 33.2319 62.445 35.708 63.5456 40.5464C63.9852 42.4627 63.2811 44.3068 63.2811 44.3068Z" fill="#46A69E"/>
</svg>
