<svg width="55" height="55" viewBox="0 0 55 55" fill="none" xmlns="http://www.w3.org/2000/svg">
<g clip-path="url(#clip0)">
<path d="M16.1341 18.0473C16.1341 19.2857 15.1249 20.2949 13.8865 20.2949C12.6481 20.2949 11.6389 19.2857 11.6389 18.0473C11.6389 16.8089 12.6481 15.7997 13.8865 15.7997C15.1249 15.7997 16.1341 16.8089 16.1341 18.0473ZM54.3433 27.0377C54.3433 41.9326 42.267 54.0089 27.3721 54.0089C12.4772 54.0089 0.400879 41.9326 0.400879 27.0377C0.400879 12.1428 12.4772 0.0664673 27.3721 0.0664673C42.267 0.0664673 54.3433 12.1428 54.3433 27.0377ZM18.3817 18.0473C18.3817 15.5637 16.3701 13.5521 13.8865 13.5521C11.4029 13.5521 9.39129 15.5637 9.39129 18.0473C9.39129 20.5309 11.4029 22.5425 13.8865 22.5425C16.3701 22.5425 18.3817 20.5309 18.3817 18.0473ZM24.902 27.921V25.9386C24.9267 23.2235 25.3852 21.2187 26.282 19.9263C27.1766 18.6339 28.5274 17.9888 30.33 17.9888C31.9887 17.9888 33.2249 18.3709 34.034 19.1329C34.8454 19.8971 35.3174 21.1243 35.45 22.8189H40.8577C40.57 19.8858 39.5002 17.609 37.6481 15.9862C35.7961 14.3635 33.3575 13.5521 30.3277 13.5521C28.1408 13.5521 26.2191 14.0668 24.5671 15.0939C22.9151 16.1211 21.6452 17.5978 20.7552 19.5195C19.8651 21.4434 19.4223 23.6663 19.4223 26.1904V27.7951C19.4223 31.7509 20.3866 34.8594 22.315 37.1249C24.2434 39.3905 26.8911 40.5233 30.2558 40.5233C33.3328 40.5233 35.8119 39.7119 37.6931 38.0892C39.5743 36.4664 40.6172 34.2435 40.8218 31.4183H35.414C35.2927 33.0163 34.8229 34.1986 33.998 34.9605C33.1732 35.7224 31.928 36.1045 30.2558 36.1045C28.406 36.1045 27.0485 35.4482 26.1899 34.1401C25.3313 32.832 24.902 30.7575 24.902 27.921V27.921Z" fill="url(#paint0_linear)"/>
</g>
<defs>
<linearGradient id="paint0_linear" x1="27.3721" y1="0.0664673" x2="27.3721" y2="54.0089" gradientUnits="userSpaceOnUse">
<stop stop-color="#2C5449"/>
<stop offset="1" stop-color="#1EA765"/>
</linearGradient>
<clipPath id="clip0">
<rect width="53.9425" height="53.9425" fill="white" transform="translate(0.400879 0.0664673)"/>
</clipPath>
</defs>
</svg>
