<svg width="37" height="36" viewBox="0 0 37 36" fill="none" xmlns="http://www.w3.org/2000/svg">
<path d="M0.554688 35.7847L3.07407 26.6245C1.51943 23.9432 0.702535 20.9037 0.704029 17.7869C0.708509 8.0426 8.67586 0.113098 18.4652 0.113098C23.2157 0.114584 27.675 1.95613 31.0292 5.29737C34.3819 8.63862 36.2278 13.0797 36.2263 17.8033C36.2218 27.549 28.2545 35.4785 18.4652 35.4785C15.4933 35.4771 12.5647 34.7354 9.97065 33.3264L0.554688 35.7847V35.7847ZM10.4067 30.1263C12.9097 31.6052 15.2991 32.491 18.4592 32.4925C26.5953 32.4925 33.2231 25.9022 33.2275 17.8003C33.2305 9.68201 26.6341 3.1006 18.4711 3.09762C10.3291 3.09762 3.70579 9.68796 3.7028 17.7884C3.70131 21.0954 4.67501 23.5716 6.3103 26.1623L4.81838 31.5844L10.4067 30.1263V30.1263ZM27.4122 22.0051C27.3017 21.8208 27.006 21.7108 26.561 21.4893C26.1174 21.2679 23.9355 20.1992 23.5278 20.0521C23.1216 19.9049 22.8259 19.8306 22.5287 20.2735C22.233 20.7149 21.3818 21.7108 21.1234 22.0051C20.8651 22.2994 20.6052 22.3365 20.1617 22.1151C19.7181 21.8936 18.2875 21.4284 16.5924 19.9227C15.2737 18.7515 14.3822 17.3053 14.1238 16.8624C13.8655 16.421 14.0969 16.1817 14.318 15.9617C14.5181 15.764 14.7615 15.446 14.984 15.1873C15.2095 14.9317 15.2827 14.7474 15.4321 14.4516C15.5799 14.1573 15.5067 13.8987 15.3947 13.6772C15.2827 13.4573 14.3956 11.2828 14.0268 10.3984C13.6653 9.53784 13.2995 9.65377 13.0277 9.64039L12.1764 9.62553C11.8807 9.62553 11.3998 9.73552 10.9936 10.1784C10.5874 10.6214 9.44049 11.6885 9.44049 13.863C9.44049 16.0375 11.031 18.1377 11.252 18.432C11.4745 18.7263 14.3807 23.1882 18.8325 25.1011C19.8914 25.5559 20.7187 25.8279 21.3624 26.0315C22.4257 26.3674 23.3934 26.3199 24.1581 26.2069C25.0108 26.0806 26.7835 25.1382 27.1538 24.1067C27.5242 23.0737 27.5242 22.1894 27.4122 22.0051V22.0051Z" fill="#39645C"/>
</svg>
